<?xml version="1.0" standalone="no"?>
<!DOCTYPE svg PUBLIC "-//W3C//DTD SVG 20010904//EN"
 "http://www.w3.org/TR/2001/REC-SVG-20010904/DTD/svg10.dtd">
<svg version="1.0" xmlns="http://www.w3.org/2000/svg"
 width="600.000000pt" height="600.000000pt" viewBox="0 0 600.000000 600.000000"
 preserveAspectRatio="xMidYMid meet">
<metadata>
Created by potrace 1.11, written by Peter Selinger 2001-2013
</metadata>
<g transform="translate(0.000000,600.000000) scale(0.100000,-0.100000)"
fill="#000000" stroke="none">
<path d="M3098 5345 c-2 -1 -39 -5 -83 -9 -86 -7 -304 -33 -345 -41 -13 -3
-42 -7 -65 -11 -82 -12 -277 -54 -392 -84 -116 -31 -369 -111 -408 -130 -11
-5 -56 -23 -99 -40 -311 -121 -692 -352 -910 -550 -242 -220 -422 -477 -482
-690 -28 -99 -24 -255 8 -341 37 -101 112 -203 238 -329 142 -141 323 -269
585 -415 28 -15 79 -44 115 -65 36 -20 126 -69 200 -107 374 -195 569 -329
606 -419 21 -51 20 -57 -49 -169 -72 -117 -206 -260 -314 -333 -91 -62 -281
-149 -363 -167 -8 -2 -49 -12 -90 -24 -67 -18 -164 -36 -300 -56 -92 -14 -354
-14 -410 -1 -70 17 -111 36 -107 50 4 12 92 45 174 66 26 6 55 14 63 16 25 7
343 72 380 78 19 3 46 8 60 11 14 2 44 7 67 10 23 3 59 7 80 11 21 3 65 9 98
14 33 5 87 12 120 15 108 11 140 17 164 32 58 37 111 125 111 185 0 28 -7 42
-27 58 -26 20 -36 21 -128 16 -55 -3 -116 -8 -135 -10 -19 -3 -69 -7 -110 -10
-74 -6 -105 -8 -225 -21 -77 -9 -91 -11 -145 -19 -25 -4 -58 -10 -75 -12 -16
-3 -84 -16 -150 -30 -307 -66 -561 -188 -656 -314 -75 -101 -89 -243 -35 -354
79 -161 361 -335 641 -395 28 -6 64 -14 80 -17 17 -4 89 -8 160 -10 101 -2
160 3 265 21 148 26 144 25 245 54 165 49 399 154 544 244 268 167 519 421
645 653 77 141 137 340 131 428 -15 194 -224 437 -590 685 -44 30 -100 69
-125 87 -36 26 -298 192 -378 239 -138 82 -331 225 -412 304 -77 76 -112 128
-125 188 -8 41 11 71 110 168 298 294 793 615 1225 794 173 72 413 149 520
167 14 3 48 9 75 14 66 13 165 20 165 12 -1 -4 -20 -42 -44 -85 -90 -166 -210
-313 -336 -411 l-45 -35 -44 24 c-24 14 -54 25 -66 25 -23 0 -92 -65 -155
-145 -18 -22 -42 -53 -55 -70 -13 -16 -46 -59 -72 -95 -261 -353 -257 -346
-257 -450 -1 -59 4 -85 23 -120 64 -124 169 -175 264 -126 106 53 352 255 591
486 423 408 627 644 768 890 64 112 77 225 37 321 -65 153 -180 267 -326 322
-51 19 -79 22 -240 23 -100 1 -184 0 -185 -1z m-291 -101 c-3 -3 -12 -4 -19
-1 -8 3 -5 6 6 6 11 1 17 -2 13 -5z m-62 -15 c-16 -6 -41 -12 -55 -15 -13 -3
-52 -13 -85 -23 -33 -10 -116 -35 -185 -56 -69 -20 -132 -39 -140 -42 -8 -3
-19 -7 -25 -8 -13 -4 -161 -56 -245 -88 -457 -171 -851 -383 -1200 -645 -126
-95 -107 -68 40 56 36 31 67 58 70 62 8 9 178 131 240 172 165 107 420 239
620 319 139 55 429 151 560 184 58 15 112 29 120 31 180 46 379 83 285 53z
m-181 -3491 c-57 -96 -173 -238 -273 -337 -245 -241 -549 -405 -936 -506 -49
-12 -106 -26 -125 -29 -19 -3 -47 -8 -62 -11 -63 -12 -87 -15 -166 -26 -46 -6
-85 -9 -88 -6 -3 2 21 8 53 11 96 12 350 74 478 117 359 121 650 295 890 534
82 81 163 174 204 233 21 30 41 46 25 20z"/>
<path d="M5523 3940 c-34 -14 -49 -47 -67 -145 -64 -334 -208 -793 -411 -1310
-199 -507 -397 -855 -485 -855 -56 0 -69 130 -36 358 10 65 18 116 22 137 2
11 7 34 9 50 45 256 218 961 270 1097 23 59 24 83 9 149 -21 91 -85 172 -151
193 -21 7 -24 0 -58 -111 -107 -346 -162 -481 -124 -303 6 29 12 59 14 68 2 9
4 17 5 17 1 0 3 9 5 20 6 29 59 190 88 266 l25 67 -66 39 c-70 42 -189 77
-231 69 -28 -6 -71 -33 -88 -55 -7 -9 -18 -41 -24 -71 -7 -30 -14 -59 -15 -65
-1 -5 -14 -57 -29 -115 -68 -267 -125 -545 -149 -735 -3 -22 -8 -58 -10 -80
-3 -22 -8 -69 -11 -105 -26 -287 -259 -684 -496 -847 -77 -52 -96 -52 -112 3
-7 26 -2 258 7 273 2 3 7 32 10 64 4 32 9 64 11 70 2 7 6 29 9 49 5 34 53 268
91 448 37 175 140 574 175 679 42 125 42 152 5 216 -83 144 -315 276 -473 270
-77 -3 -98 -28 -127 -146 -13 -52 -30 -121 -39 -154 -38 -142 -105 -466 -126
-615 -12 -83 -20 -138 -25 -170 -3 -14 -7 -54 -11 -90 -3 -36 -8 -78 -11 -95
-9 -57 -11 -480 -2 -550 4 -38 11 -90 14 -115 9 -71 33 -158 67 -245 85 -218
231 -333 423 -333 82 0 154 25 239 81 103 70 279 266 365 408 l19 30 26 -82
c54 -167 147 -313 238 -373 70 -46 163 -69 251 -63 109 7 197 57 327 187 267
265 522 695 812 1370 156 361 288 740 283 812 -2 31 -27 95 -50 127 -34 49
-150 151 -201 178 -65 35 -153 50 -191 33z m-2304 -552 c-7 -29 -14 -55 -14
-58 -1 -3 -4 -18 -8 -35 -4 -16 -9 -42 -12 -57 -3 -16 -7 -40 -10 -55 -19 -97
-55 -305 -60 -343 -3 -25 -8 -56 -10 -70 -6 -37 -13 -98 -20 -155 -2 -27 -7
-70 -10 -95 -3 -25 -6 -101 -7 -170 l0 -124 -22 39 c-19 36 -21 56 -21 205 0
214 5 259 57 495 30 139 102 391 118 410 4 6 11 25 15 43 4 18 9 31 12 28 3
-3 -1 -29 -8 -58z m2321 -299 c-20 -89 -112 -374 -136 -421 -8 -15 -14 -30
-14 -33 0 -3 -7 -21 -15 -41 -8 -20 -15 -38 -15 -40 0 -7 -53 -123 -101 -219
-49 -98 -116 -201 -125 -192 -5 5 34 107 81 212 14 33 30 69 35 80 4 11 17 40
29 65 96 213 240 571 266 658 4 13 8 22 10 20 2 -2 -5 -42 -15 -89z m104 -85
c-25 -77 -126 -333 -167 -424 -104 -235 -150 -331 -215 -455 -70 -131 -87
-156 -72 -106 10 36 109 271 120 286 4 6 11 21 15 33 9 32 162 369 266 587 18
39 34 72 34 75 1 3 9 22 18 44 9 21 17 44 18 50 0 8 2 8 5 0 3 -6 -7 -47 -22
-90z"/>
</g>
</svg>
